# MagicaVoxel @ Ephtracy

# group
o 

# material
mtllib man_03-2.mtl
usemtl palette

# normals
vn -1 0 0
vn 1 0 0
vn 0 0 1
vn 0 0 -1
vn 0 -1 0
vn 0 1 0

# texcoords
vt 0.294922 0.5
vt 0.916016 0.5

# verts
v 0.5 0.5 -0.3
v 0.5 0.5 -0.6
v 0.5 1.5 -0.3
v 0.5 1.5 -0.6
v 0.5 1.8 -0.3
v 0.5 1.8 -0.6
v 0.6 0.6 -0.2
v 0.6 0.6 -0.3
v 0.6 0.7 -0.2
v 0.6 0.7 -0.3
v 0.7 0.5 -0.3
v 0.7 0.5 -0.6
v 0.7 0.6 -0.2
v 0.7 0.6 -0.3
v 0.7 0.7 -0.2
v 0.7 0.7 -0.3
v 0.7 1.5 -0.3
v 0.7 1.5 -0.6
v 0.7 1.8 -0.3
v 0.7 1.8 -0.6
v 0.6 0.6 -0.2
v 0.6 0.7 -0.2
v 0.7 0.6 -0.2
v 0.7 0.7 -0.2
v 0.5 0.5 -0.3
v 0.5 1.5 -0.3
v 0.5 1.8 -0.3
v 0.6 0.6 -0.3
v 0.6 0.7 -0.3
v 0.7 0.5 -0.3
v 0.7 0.6 -0.3
v 0.7 0.7 -0.3
v 0.7 1.5 -0.3
v 0.7 1.8 -0.3
v 0.5 0.5 -0.6
v 0.5 1.5 -0.6
v 0.5 1.8 -0.6
v 0.7 0.5 -0.6
v 0.7 1.5 -0.6
v 0.7 1.8 -0.6
v 0.5 0.5 -0.3
v 0.7 0.5 -0.3
v 0.5 0.5 -0.6
v 0.7 0.5 -0.6
v 0.6 0.6 -0.2
v 0.7 0.6 -0.2
v 0.6 0.6 -0.3
v 0.7 0.6 -0.3
v 0.6 0.7 -0.2
v 0.7 0.7 -0.2
v 0.6 0.7 -0.3
v 0.7 0.7 -0.3
v 0.5 1.8 -0.3
v 0.7 1.8 -0.3
v 0.5 1.8 -0.6
v 0.7 1.8 -0.6

# faces
f 3/1/1 2/1/1 1/1/1
f 4/1/1 2/1/1 3/1/1
f 5/2/1 4/2/1 3/2/1
f 6/2/1 4/2/1 5/2/1
f 9/1/1 8/1/1 7/1/1
f 10/1/1 8/1/1 9/1/1
f 11/1/2 12/1/2 14/1/2
f 13/1/2 14/1/2 15/1/2
f 14/1/2 12/1/2 16/1/2
f 15/1/2 14/1/2 16/1/2
f 16/1/2 12/1/2 17/1/2
f 17/1/2 12/1/2 18/1/2
f 17/2/2 18/2/2 19/2/2
f 19/2/2 18/2/2 20/2/2
f 23/1/3 22/1/3 21/1/3
f 24/1/3 22/1/3 23/1/3
f 28/1/3 26/1/3 25/1/3
f 29/1/3 26/1/3 28/1/3
f 30/1/3 28/1/3 25/1/3
f 31/1/3 28/1/3 30/1/3
f 32/1/3 26/1/3 29/1/3
f 33/2/3 27/2/3 26/2/3
f 33/1/3 26/1/3 32/1/3
f 34/2/3 27/2/3 33/2/3
f 35/1/4 36/1/4 38/1/4
f 36/2/4 37/2/4 39/2/4
f 38/1/4 36/1/4 39/1/4
f 39/2/4 37/2/4 40/2/4
f 43/1/5 42/1/5 41/1/5
f 44/1/5 42/1/5 43/1/5
f 47/1/5 46/1/5 45/1/5
f 48/1/5 46/1/5 47/1/5
f 49/1/6 50/1/6 51/1/6
f 51/1/6 50/1/6 52/1/6
f 53/2/6 54/2/6 55/2/6
f 55/2/6 54/2/6 56/2/6
