# MagicaVoxel @ Ephtracy

# group
o 

# material
mtllib man_03-4.mtl
usemtl palette

# normals
vn -1 0 0
vn 1 0 0
vn 0 0 1
vn 0 0 -1
vn 0 -1 0
vn 0 1 0

# texcoords
vt 0.287109 0.5
vt 0.478516 0.5
vt 0.771484 0.5
vt 0.791016 0.5
vt 0.912109 0.5
vt 0.916016 0.5
vt 0.931641 0.5
vt 0.955078 0.5

# verts
v 0.1 0 -0.1
v 0.1 0 -0.8
v 0.1 0.2 -0.1
v 0.1 0.2 -0.8
v 0.1 0.3 -0.1
v 0.1 0.3 -0.8
v 0.1 1.3 -0.8
v 0.1 1.3 -0.9
v 0.1 1.4 -0.1
v 0.1 1.4 -0.3
v 0.1 1.4 -0.8
v 0.1 1.6 -0.3
v 0.1 1.6 -0.4
v 0.1 1.8 -0.3
v 0.1 1.8 -0.4
v 0.1 2 0.1
v 0.1 2 -0.3
v 0.1 2.1 0.1
v 0.1 2.1 0
v 0.1 2.1 -0.8
v 0.1 2.1 -0.9
v 0.1 2.2 0
v 0.1 2.2 -0.8
v 0.2 1.3 0
v 0.2 1.3 -0.1
v 0.2 1.4 -0.1
v 0.2 1.4 -0.3
v 0.2 1.6 -0.3
v 0.2 1.6 -0.4
v 0.2 1.8 -0.3
v 0.2 1.8 -0.4
v 0.2 2 0
v 0.2 2 -0.3
v 0.2 2.1 0.1
v 0.2 2.1 0
v 0.2 2.1 -0.8
v 0.2 2.1 -0.9
v 0.2 2.2 0.1
v 0.2 2.2 0
v 0.2 2.2 -0.8
v 0.2 2.2 -0.9
v 0.4 1.3 0.1
v 0.4 1.3 0
v 0.4 1.5 0.1
v 0.4 1.5 0
v 0.4 1.9 0.1
v 0.4 1.9 0
v 0.4 2 0.1
v 0.4 2 0
v 0.6 1.8 0.1
v 0.6 1.8 0
v 0.6 1.9 0.1
v 0.6 1.9 0
v 0.8 1.3 0.1
v 0.8 1.3 0
v 0.8 1.4 0.1
v 0.8 1.4 0
v 0.5 1.3 0.1
v 0.5 1.3 0
v 0.5 1.4 0.1
v 0.5 1.4 0
v 0.7 1.8 0.1
v 0.7 1.8 0
v 0.7 1.9 0.1
v 0.7 1.9 0
v 0.9 1.3 0.1
v 0.9 1.3 0
v 0.9 1.5 0.1
v 0.9 1.5 0
v 0.9 1.9 0.1
v 0.9 1.9 0
v 0.9 2 0.1
v 0.9 2 0
v 1.1 1.3 0
v 1.1 1.3 -0.1
v 1.1 1.4 -0.1
v 1.1 1.4 -0.3
v 1.1 1.6 -0.3
v 1.1 1.6 -0.4
v 1.1 1.8 -0.3
v 1.1 1.8 -0.4
v 1.1 2 0
v 1.1 2 -0.3
v 1.1 2.1 0.1
v 1.1 2.1 0
v 1.1 2.1 -0.8
v 1.1 2.1 -0.9
v 1.1 2.2 0.1
v 1.1 2.2 0
v 1.1 2.2 -0.8
v 1.1 2.2 -0.9
v 1.2 0 -0.1
v 1.2 0 -0.8
v 1.2 0.2 -0.1
v 1.2 0.2 -0.8
v 1.2 0.3 -0.1
v 1.2 0.3 -0.8
v 1.2 1.3 -0.8
v 1.2 1.3 -0.9
v 1.2 1.4 -0.1
v 1.2 1.4 -0.3
v 1.2 1.4 -0.8
v 1.2 1.6 -0.3
v 1.2 1.6 -0.4
v 1.2 1.8 -0.3
v 1.2 1.8 -0.4
v 1.2 2 0.1
v 1.2 2 -0.3
v 1.2 2.1 0.1
v 1.2 2.1 0
v 1.2 2.1 -0.8
v 1.2 2.1 -0.9
v 1.2 2.2 0
v 1.2 2.2 -0.8
v 0.1 2 0.1
v 0.1 2.1 0.1
v 0.2 2.1 0.1
v 0.2 2.2 0.1
v 0.4 1.3 0.1
v 0.4 1.5 0.1
v 0.4 1.9 0.1
v 0.4 2 0.1
v 0.5 1.3 0.1
v 0.5 1.4 0.1
v 0.6 1.8 0.1
v 0.6 1.9 0.1
v 0.7 1.8 0.1
v 0.7 1.9 0.1
v 0.8 1.3 0.1
v 0.8 1.4 0.1
v 0.9 1.3 0.1
v 0.9 1.5 0.1
v 0.9 1.9 0.1
v 0.9 2 0.1
v 1.1 2.1 0.1
v 1.1 2.2 0.1
v 1.2 2 0.1
v 1.2 2.1 0.1
v 0.1 2.1 0
v 0.1 2.2 0
v 0.2 1.3 0
v 0.2 2 0
v 0.2 2.1 0
v 0.2 2.2 0
v 0.3 1.7 0
v 0.3 1.8 0
v 0.4 1.3 0
v 0.4 1.5 0
v 0.4 1.6 0
v 0.4 1.7 0
v 0.4 1.9 0
v 0.4 2 0
v 0.5 1.3 0
v 0.5 1.4 0
v 0.5 1.6 0
v 0.5 1.7 0
v 0.6 1.7 0
v 0.6 1.8 0
v 0.6 1.9 0
v 0.7 1.7 0
v 0.7 1.8 0
v 0.7 1.9 0
v 0.8 1.3 0
v 0.8 1.4 0
v 0.8 1.6 0
v 0.8 1.7 0
v 0.9 1.3 0
v 0.9 1.5 0
v 0.9 1.6 0
v 0.9 1.7 0
v 0.9 1.9 0
v 0.9 2 0
v 1 1.7 0
v 1 1.8 0
v 1.1 1.3 0
v 1.1 2 0
v 1.1 2.1 0
v 1.1 2.2 0
v 1.2 2.1 0
v 1.2 2.2 0
v 0.1 0 -0.1
v 0.1 0.2 -0.1
v 0.1 0.3 -0.1
v 0.1 1.4 -0.1
v 0.2 0.3 -0.1
v 0.2 1.3 -0.1
v 0.2 1.4 -0.1
v 0.3 1.2 -0.1
v 0.3 1.3 -0.1
v 0.4 1.1 -0.1
v 0.4 1.2 -0.1
v 0.4 1.3 -0.1
v 0.5 0.2 -0.1
v 0.5 0.3 -0.1
v 0.5 1 -0.1
v 0.5 1.1 -0.1
v 0.5 1.2 -0.1
v 0.6 0.9 -0.1
v 0.6 1 -0.1
v 0.6 1.1 -0.1
v 0.7 0.9 -0.1
v 0.7 1 -0.1
v 0.7 1.1 -0.1
v 0.8 0.2 -0.1
v 0.8 0.3 -0.1
v 0.8 1 -0.1
v 0.8 1.1 -0.1
v 0.8 1.2 -0.1
v 0.9 1.1 -0.1
v 0.9 1.2 -0.1
v 0.9 1.3 -0.1
v 1 1.2 -0.1
v 1 1.3 -0.1
v 1.1 1.3 -0.1
v 1.1 1.4 -0.1
v 1.2 0 -0.1
v 1.2 0.2 -0.1
v 1.2 0.3 -0.1
v 1.2 1.4 -0.1
v 0.1 1.4 -0.3
v 0.1 1.6 -0.3
v 0.1 1.8 -0.3
v 0.1 2 -0.3
v 0.2 1.4 -0.3
v 0.2 1.6 -0.3
v 0.2 1.8 -0.3
v 0.2 2 -0.3
v 1.1 1.4 -0.3
v 1.1 1.6 -0.3
v 1.1 1.8 -0.3
v 1.1 2 -0.3
v 1.2 1.4 -0.3
v 1.2 1.6 -0.3
v 1.2 1.8 -0.3
v 1.2 2 -0.3
v 0.1 1.6 -0.4
v 0.1 1.8 -0.4
v 0.2 1.6 -0.4
v 0.2 1.8 -0.4
v 1.1 1.6 -0.4
v 1.1 1.8 -0.4
v 1.2 1.6 -0.4
v 1.2 1.8 -0.4
v 0.1 0 -0.8
v 0.1 0.2 -0.8
v 0.1 0.3 -0.8
v 0.1 1.3 -0.8
v 0.1 2.1 -0.8
v 0.1 2.2 -0.8
v 0.2 0.3 -0.8
v 0.2 1.3 -0.8
v 0.2 2.1 -0.8
v 0.2 2.2 -0.8
v 1.1 2.1 -0.8
v 1.1 2.2 -0.8
v 1.2 0 -0.8
v 1.2 0.2 -0.8
v 1.2 0.3 -0.8
v 1.2 1.3 -0.8
v 1.2 2.1 -0.8
v 1.2 2.2 -0.8
v 0.1 1.3 -0.9
v 0.1 2.1 -0.9
v 0.2 2.1 -0.9
v 0.2 2.2 -0.9
v 1.1 2.1 -0.9
v 1.1 2.2 -0.9
v 1.2 1.3 -0.9
v 1.2 2.1 -0.9
v 0.1 0 -0.1
v 1.2 0 -0.1
v 0.1 0 -0.8
v 1.2 0 -0.8
v 0.4 1.3 0.1
v 0.5 1.3 0.1
v 0.8 1.3 0.1
v 0.9 1.3 0.1
v 0.2 1.3 0
v 0.4 1.3 0
v 0.5 1.3 0
v 0.8 1.3 0
v 0.9 1.3 0
v 1.1 1.3 0
v 0.2 1.3 -0.1
v 0.3 1.3 -0.1
v 0.4 1.3 -0.1
v 0.9 1.3 -0.1
v 1 1.3 -0.1
v 1.1 1.3 -0.1
v 0.1 1.3 -0.8
v 0.2 1.3 -0.8
v 1.2 1.3 -0.8
v 0.1 1.3 -0.9
v 1.2 1.3 -0.9
v 0.5 1.4 0.1
v 0.8 1.4 0.1
v 0.5 1.4 0
v 0.8 1.4 0
v 0.6 1.8 0.1
v 0.7 1.8 0.1
v 0.6 1.8 0
v 0.7 1.8 0
v 0.1 1.8 -0.3
v 0.2 1.8 -0.3
v 1.1 1.8 -0.3
v 1.2 1.8 -0.3
v 0.1 1.8 -0.4
v 0.2 1.8 -0.4
v 1.1 1.8 -0.4
v 1.2 1.8 -0.4
v 0.4 1.9 0.1
v 0.6 1.9 0.1
v 0.7 1.9 0.1
v 0.9 1.9 0.1
v 0.4 1.9 0
v 0.6 1.9 0
v 0.7 1.9 0
v 0.9 1.9 0
v 0.1 2 0.1
v 0.4 2 0.1
v 0.9 2 0.1
v 1.2 2 0.1
v 0.2 2 0
v 0.4 2 0
v 0.9 2 0
v 1.1 2 0
v 0.1 2 -0.3
v 0.2 2 -0.3
v 1.1 2 -0.3
v 1.2 2 -0.3
v 0.1 1.4 -0.1
v 0.2 1.4 -0.1
v 1.1 1.4 -0.1
v 1.2 1.4 -0.1
v 0.1 1.4 -0.3
v 0.2 1.4 -0.3
v 1.1 1.4 -0.3
v 1.2 1.4 -0.3
v 0.4 1.5 0.1
v 0.9 1.5 0.1
v 0.4 1.5 0
v 0.9 1.5 0
v 0.1 1.6 -0.3
v 0.2 1.6 -0.3
v 1.1 1.6 -0.3
v 1.2 1.6 -0.3
v 0.1 1.6 -0.4
v 0.2 1.6 -0.4
v 1.1 1.6 -0.4
v 1.2 1.6 -0.4
v 0.1 2.1 0.1
v 0.2 2.1 0.1
v 1.1 2.1 0.1
v 1.2 2.1 0.1
v 0.1 2.1 0
v 0.2 2.1 0
v 1.1 2.1 0
v 1.2 2.1 0
v 0.1 2.1 -0.8
v 0.2 2.1 -0.8
v 1.1 2.1 -0.8
v 1.2 2.1 -0.8
v 0.1 2.1 -0.9
v 0.2 2.1 -0.9
v 1.1 2.1 -0.9
v 1.2 2.1 -0.9
v 0.2 2.2 0.1
v 1.1 2.2 0.1
v 0.1 2.2 0
v 0.2 2.2 0
v 1.1 2.2 0
v 1.2 2.2 0
v 0.1 2.2 -0.8
v 0.2 2.2 -0.8
v 1.1 2.2 -0.8
v 1.2 2.2 -0.8
v 0.2 2.2 -0.9
v 1.1 2.2 -0.9

# faces
f 3/3/1 2/3/1 1/3/1
f 4/3/1 2/3/1 3/3/1
f 5/4/1 4/4/1 3/4/1
f 6/4/1 4/4/1 5/4/1
f 7/6/1 6/6/1 5/6/1
f 9/6/1 7/6/1 5/6/1
f 10/6/1 7/6/1 9/6/1
f 11/8/1 8/8/1 7/8/1
f 11/6/1 7/6/1 10/6/1
f 12/8/1 11/8/1 10/8/1
f 13/8/1 11/8/1 12/8/1
f 15/8/1 11/8/1 13/8/1
f 17/8/1 15/8/1 14/8/1
f 18/8/1 17/8/1 16/8/1
f 19/8/1 17/8/1 18/8/1
f 20/8/1 8/8/1 11/8/1
f 20/8/1 17/8/1 19/8/1
f 20/8/1 11/8/1 15/8/1
f 20/8/1 15/8/1 17/8/1
f 21/8/1 8/8/1 20/8/1
f 22/8/1 20/8/1 19/8/1
f 23/8/1 20/8/1 22/8/1
f 26/1/1 25/1/1 24/1/1
f 28/1/1 27/1/1 26/1/1
f 30/1/1 28/1/1 26/1/1
f 30/1/1 29/1/1 28/1/1
f 31/1/1 29/1/1 30/1/1
f 32/1/1 26/1/1 24/1/1
f 32/1/1 30/1/1 26/1/1
f 33/1/1 30/1/1 32/1/1
f 38/8/1 35/8/1 34/8/1
f 39/8/1 35/8/1 38/8/1
f 40/8/1 37/8/1 36/8/1
f 41/8/1 37/8/1 40/8/1
f 44/8/1 43/8/1 42/8/1
f 45/8/1 43/8/1 44/8/1
f 48/8/1 47/8/1 46/8/1
f 49/8/1 47/8/1 48/8/1
f 52/8/1 51/8/1 50/8/1
f 53/8/1 51/8/1 52/8/1
f 56/8/1 55/8/1 54/8/1
f 57/8/1 55/8/1 56/8/1
f 58/8/2 59/8/2 60/8/2
f 60/8/2 59/8/2 61/8/2
f 62/8/2 63/8/2 64/8/2
f 64/8/2 63/8/2 65/8/2
f 66/8/2 67/8/2 68/8/2
f 68/8/2 67/8/2 69/8/2
f 70/8/2 71/8/2 72/8/2
f 72/8/2 71/8/2 73/8/2
f 74/1/2 75/1/2 76/1/2
f 76/1/2 77/1/2 78/1/2
f 76/1/2 78/1/2 80/1/2
f 78/1/2 79/1/2 80/1/2
f 80/1/2 79/1/2 81/1/2
f 74/1/2 76/1/2 82/1/2
f 76/1/2 80/1/2 82/1/2
f 82/1/2 80/1/2 83/1/2
f 84/8/2 85/8/2 88/8/2
f 88/8/2 85/8/2 89/8/2
f 86/8/2 87/8/2 90/8/2
f 90/8/2 87/8/2 91/8/2
f 92/3/2 93/3/2 94/3/2
f 94/3/2 93/3/2 95/3/2
f 94/4/2 95/4/2 96/4/2
f 96/4/2 95/4/2 97/4/2
f 96/5/2 97/5/2 98/5/2
f 96/5/2 98/5/2 100/5/2
f 100/5/2 98/5/2 101/5/2
f 98/8/2 99/8/2 102/8/2
f 101/5/2 98/5/2 102/5/2
f 101/8/2 102/8/2 103/8/2
f 103/8/2 102/8/2 104/8/2
f 104/8/2 102/8/2 106/8/2
f 105/8/2 106/8/2 108/8/2
f 107/8/2 108/8/2 109/8/2
f 109/8/2 108/8/2 110/8/2
f 102/8/2 99/8/2 111/8/2
f 110/8/2 108/8/2 111/8/2
f 106/8/2 102/8/2 111/8/2
f 108/8/2 106/8/2 111/8/2
f 111/8/2 99/8/2 112/8/2
f 110/8/2 111/8/2 113/8/2
f 113/8/2 111/8/2 114/8/2
f 117/8/3 116/8/3 115/8/3
f 122/8/3 117/8/3 115/8/3
f 122/8/3 118/8/3 117/8/3
f 123/8/3 120/8/3 119/8/3
f 124/8/3 120/8/3 123/8/3
f 126/8/3 122/8/3 121/8/3
f 127/8/3 126/8/3 125/8/3
f 128/8/3 122/8/3 126/8/3
f 128/8/3 126/8/3 127/8/3
f 130/8/3 120/8/3 124/8/3
f 131/8/3 130/8/3 129/8/3
f 132/8/3 120/8/3 130/8/3
f 132/8/3 130/8/3 131/8/3
f 133/8/3 122/8/3 128/8/3
f 134/8/3 118/8/3 122/8/3
f 134/8/3 122/8/3 133/8/3
f 135/8/3 118/8/3 134/8/3
f 136/8/3 118/8/3 135/8/3
f 137/8/3 135/8/3 134/8/3
f 138/8/3 135/8/3 137/8/3
f 143/8/3 140/8/3 139/8/3
f 144/8/3 140/8/3 143/8/3
f 145/1/3 142/1/3 141/1/3
f 146/1/3 142/1/3 145/1/3
f 147/1/3 145/1/3 141/1/3
f 148/1/3 145/1/3 147/1/3
f 149/1/3 145/1/3 148/1/3
f 150/7/3 146/7/3 145/7/3
f 150/1/3 145/1/3 149/1/3
f 151/1/3 142/1/3 146/1/3
f 152/1/3 142/1/3 151/1/3
f 155/1/3 149/1/3 148/1/3
f 155/7/3 150/7/3 149/7/3
f 156/7/3 146/7/3 150/7/3
f 156/7/3 150/7/3 155/7/3
f 157/1/3 156/1/3 155/1/3
f 157/7/3 146/7/3 156/7/3
f 158/1/3 151/1/3 146/1/3
f 158/7/3 146/7/3 157/7/3
f 159/1/3 151/1/3 158/1/3
f 160/1/3 157/1/3 155/1/3
f 160/1/3 158/1/3 157/1/3
f 161/1/3 158/1/3 160/1/3
f 163/1/3 154/1/3 153/1/3
f 164/1/3 154/1/3 163/1/3
f 165/1/3 155/1/3 148/1/3
f 165/1/3 160/1/3 155/1/3
f 166/7/3 161/7/3 160/7/3
f 166/1/3 160/1/3 165/1/3
f 168/1/3 165/1/3 148/1/3
f 169/7/3 166/7/3 165/7/3
f 169/1/3 165/1/3 168/1/3
f 170/7/3 161/7/3 166/7/3
f 170/7/3 166/7/3 169/7/3
f 171/1/3 162/1/3 161/1/3
f 173/1/3 169/1/3 168/1/3
f 173/7/3 161/7/3 170/7/3
f 173/1/3 170/1/3 169/1/3
f 173/1/3 168/1/3 167/1/3
f 174/1/3 172/1/3 171/1/3
f 174/7/3 161/7/3 173/7/3
f 174/1/3 171/1/3 161/1/3
f 175/1/3 173/1/3 167/1/3
f 175/1/3 174/1/3 173/1/3
f 176/1/3 172/1/3 174/1/3
f 176/1/3 174/1/3 175/1/3
f 179/8/3 178/8/3 177/8/3
f 180/8/3 178/8/3 179/8/3
f 185/4/3 183/4/3 182/4/3
f 185/6/3 184/6/3 183/6/3
f 186/6/3 184/6/3 185/6/3
f 187/6/3 184/6/3 186/6/3
f 188/5/3 186/5/3 185/5/3
f 189/5/3 186/5/3 188/5/3
f 190/5/3 188/5/3 185/5/3
f 191/2/3 189/2/3 188/2/3
f 191/5/3 188/5/3 190/5/3
f 192/2/3 189/2/3 191/2/3
f 193/3/3 182/3/3 181/3/3
f 193/4/3 185/4/3 182/4/3
f 194/5/3 190/5/3 185/5/3
f 194/4/3 185/4/3 193/4/3
f 195/5/3 190/5/3 194/5/3
f 196/2/3 191/2/3 190/2/3
f 196/5/3 190/5/3 195/5/3
f 197/5/3 192/5/3 191/5/3
f 197/2/3 191/2/3 196/2/3
f 198/5/3 195/5/3 194/5/3
f 199/2/3 196/2/3 195/2/3
f 199/5/3 195/5/3 198/5/3
f 200/5/3 197/5/3 196/5/3
f 200/2/3 196/2/3 199/2/3
f 201/5/3 198/5/3 194/5/3
f 201/2/3 199/2/3 198/2/3
f 202/5/3 200/5/3 199/5/3
f 202/2/3 199/2/3 201/2/3
f 203/5/3 197/5/3 200/5/3
f 203/5/3 200/5/3 202/5/3
f 204/3/3 193/3/3 181/3/3
f 204/2/3 194/2/3 193/2/3
f 205/5/3 202/5/3 201/5/3
f 205/2/3 194/2/3 204/2/3
f 205/5/3 201/5/3 194/5/3
f 206/2/3 203/2/3 202/2/3
f 206/5/3 202/5/3 205/5/3
f 207/5/3 197/5/3 203/5/3
f 207/2/3 203/2/3 206/2/3
f 208/5/3 192/5/3 197/5/3
f 208/5/3 197/5/3 207/5/3
f 209/5/3 206/5/3 205/5/3
f 209/5/3 207/5/3 206/5/3
f 209/2/3 208/2/3 207/2/3
f 210/5/3 192/5/3 208/5/3
f 210/2/3 208/2/3 209/2/3
f 211/5/3 192/5/3 210/5/3
f 212/5/3 210/5/3 209/5/3
f 212/2/3 211/2/3 210/2/3
f 213/2/3 211/2/3 212/2/3
f 214/5/3 213/5/3 212/5/3
f 216/3/3 204/3/3 181/3/3
f 217/4/3 205/4/3 204/4/3
f 217/3/3 204/3/3 216/3/3
f 218/5/3 214/5/3 212/5/3
f 218/4/3 205/4/3 217/4/3
f 218/5/3 215/5/3 214/5/3
f 218/5/3 212/5/3 209/5/3
f 218/5/3 209/5/3 205/5/3
f 219/5/3 215/5/3 218/5/3
f 224/8/3 221/8/3 220/8/3
f 225/8/3 221/8/3 224/8/3
f 226/8/3 223/8/3 222/8/3
f 227/8/3 223/8/3 226/8/3
f 232/8/3 229/8/3 228/8/3
f 233/8/3 229/8/3 232/8/3
f 234/8/3 231/8/3 230/8/3
f 235/8/3 231/8/3 234/8/3
f 238/8/3 237/8/3 236/8/3
f 239/8/3 237/8/3 238/8/3
f 242/8/3 241/8/3 240/8/3
f 243/8/3 241/8/3 242/8/3
f 245/4/4 246/4/4 250/4/4
f 246/6/4 247/6/4 250/6/4
f 250/6/4 247/6/4 251/6/4
f 248/8/4 249/8/4 252/8/4
f 252/8/4 249/8/4 253/8/4
f 244/3/4 245/3/4 256/3/4
f 245/4/4 250/4/4 257/4/4
f 256/3/4 245/3/4 257/3/4
f 250/5/4 251/5/4 258/5/4
f 257/4/4 250/4/4 258/4/4
f 258/5/4 251/5/4 259/5/4
f 254/8/4 255/8/4 260/8/4
f 260/8/4 255/8/4 261/8/4
f 262/8/4 263/8/4 264/8/4
f 262/8/4 264/8/4 266/8/4
f 264/8/4 265/8/4 266/8/4
f 266/8/4 265/8/4 267/8/4
f 262/8/4 266/8/4 268/8/4
f 268/8/4 266/8/4 269/8/4
f 272/3/5 271/3/5 270/3/5
f 273/3/5 271/3/5 272/3/5
f 279/8/5 275/8/5 274/8/5
f 280/8/5 275/8/5 279/8/5
f 281/8/5 277/8/5 276/8/5
f 282/8/5 277/8/5 281/8/5
f 284/1/5 280/1/5 279/1/5
f 284/1/5 283/1/5 282/1/5
f 284/1/5 282/1/5 281/1/5
f 284/1/5 281/1/5 280/1/5
f 284/1/5 279/1/5 278/1/5
f 285/1/5 283/1/5 284/1/5
f 286/1/5 283/1/5 285/1/5
f 287/1/5 283/1/5 286/1/5
f 288/1/5 283/1/5 287/1/5
f 289/1/5 283/1/5 288/1/5
f 293/8/5 291/8/5 290/8/5
f 293/8/5 292/8/5 291/8/5
f 294/8/5 292/8/5 293/8/5
f 297/8/5 296/8/5 295/8/5
f 298/8/5 296/8/5 297/8/5
f 301/8/5 300/8/5 299/8/5
f 302/8/5 300/8/5 301/8/5
f 307/8/5 304/8/5 303/8/5
f 308/8/5 304/8/5 307/8/5
f 309/8/5 306/8/5 305/8/5
f 310/8/5 306/8/5 309/8/5
f 315/8/5 312/8/5 311/8/5
f 316/8/5 312/8/5 315/8/5
f 317/8/5 314/8/5 313/8/5
f 318/8/5 314/8/5 317/8/5
f 323/8/5 320/8/5 319/8/5
f 324/8/5 320/8/5 323/8/5
f 325/8/5 322/8/5 321/8/5
f 326/8/5 322/8/5 325/8/5
f 327/8/5 323/8/5 319/8/5
f 328/8/5 323/8/5 327/8/5
f 329/8/5 322/8/5 326/8/5
f 330/8/5 322/8/5 329/8/5
f 331/6/6 332/6/6 335/6/6
f 335/6/6 332/6/6 336/6/6
f 333/5/6 334/5/6 337/5/6
f 337/5/6 334/5/6 338/5/6
f 339/8/6 340/8/6 341/8/6
f 341/8/6 340/8/6 342/8/6
f 343/8/6 344/8/6 347/8/6
f 347/8/6 344/8/6 348/8/6
f 345/8/6 346/8/6 349/8/6
f 349/8/6 346/8/6 350/8/6
f 351/8/6 352/8/6 355/8/6
f 355/8/6 352/8/6 356/8/6
f 353/8/6 354/8/6 357/8/6
f 357/8/6 354/8/6 358/8/6
f 359/8/6 360/8/6 363/8/6
f 363/8/6 360/8/6 364/8/6
f 361/8/6 362/8/6 365/8/6
f 365/8/6 362/8/6 366/8/6
f 367/8/6 368/8/6 370/8/6
f 370/8/6 368/8/6 371/8/6
f 369/8/6 370/8/6 373/8/6
f 371/8/6 372/8/6 373/8/6
f 370/8/6 371/8/6 373/8/6
f 373/8/6 372/8/6 374/8/6
f 374/8/6 372/8/6 375/8/6
f 375/8/6 372/8/6 376/8/6
f 374/8/6 375/8/6 377/8/6
f 377/8/6 375/8/6 378/8/6
