# MagicaVoxel @ Ephtracy

# group
o 

# material
mtllib parking-0.mtl
usemtl palette

# normals
vn 0 0 -1
vn 0 0 1
vn 1 0 0
vn -1 0 0
vn 0 -1 0
vn 0 1 0

# texcoords
vt 0.892578 0.5
vt 0.982422 0.5

# verts
v 39.4 0 -12.9
v 37.3 0 -12.9
v 36.1 0 -12.9
v 36.8 0.1 -12.9
v 36.1 0.1 -12.9
v 39.4 0.2 -12.9
v 37.3 0.2 -12.9
v 37.1 0.2 -12.9
v 36.8 0.2 -12.9
v 37.3 0.3 -12.9
v 37.1 0.3 -12.9
v 39.4 0 -6.3
v 37.3 0 -6.3
v 36.1 0 -6.3
v 36.8 0.1 -6.3
v 36.1 0.1 -6.3
v 39.4 0.2 -6.3
v 37.3 0.2 -6.3
v 37.1 0.2 -6.3
v 36.8 0.2 -6.3
v 37.3 0.3 -6.3
v 37.1 0.3 -6.3
v 39.4 0 -12.9
v 39.4 0.2 -12.9
v 39.4 0 -6.3
v 39.4 0.2 -6.3
v 37.3 0.2 -12.9
v 37.3 0.3 -12.9
v 37.3 0.2 -6.3
v 37.3 0.3 -6.3
v 37.1 0.2 -12.9
v 37.1 0.3 -12.9
v 37.1 0.2 -6.3
v 37.1 0.3 -6.3
v 36.8 0.1 -12.9
v 36.8 0.2 -12.9
v 36.8 0.1 -6.3
v 36.8 0.2 -6.3
v 36.1 0 -12.9
v 36.1 0.1 -12.9
v 36.1 0 -6.3
v 36.1 0.1 -6.3
v 39.4 0 -12.9
v 39.4 0 -6.3
v 37.3 0 -12.9
v 37.3 0 -6.3
v 36.1 0 -12.9
v 36.1 0 -6.3
v 36.8 0.1 -12.9
v 36.8 0.1 -6.3
v 36.1 0.1 -12.9
v 36.1 0.1 -6.3
v 39.4 0.2 -12.9
v 39.4 0.2 -6.3
v 37.3 0.2 -12.9
v 37.3 0.2 -6.3
v 37.1 0.2 -12.9
v 37.1 0.2 -6.3
v 36.8 0.2 -12.9
v 36.8 0.2 -6.3
v 37.3 0.3 -12.9
v 37.3 0.3 -6.3
v 37.1 0.3 -12.9
v 37.1 0.3 -6.3

# faces
f 2/2/1 3/2/1 4/2/1
f 4/2/1 3/2/1 5/2/1
f 1/1/1 2/1/1 6/1/1
f 2/2/1 4/2/1 7/2/1
f 6/1/1 2/1/1 7/1/1
f 7/2/1 4/2/1 8/2/1
f 8/2/1 4/2/1 9/2/1
f 7/2/1 8/2/1 10/2/1
f 10/2/1 8/2/1 11/2/1
f 15/2/2 14/2/2 13/2/2
f 16/2/2 14/2/2 15/2/2
f 17/1/2 13/1/2 12/1/2
f 18/2/2 15/2/2 13/2/2
f 18/1/2 13/1/2 17/1/2
f 19/2/2 15/2/2 18/2/2
f 20/2/2 15/2/2 19/2/2
f 21/2/2 19/2/2 18/2/2
f 22/2/2 19/2/2 21/2/2
f 23/1/3 24/1/3 25/1/3
f 25/1/3 24/1/3 26/1/3
f 27/2/3 28/2/3 29/2/3
f 29/2/3 28/2/3 30/2/3
f 33/2/4 32/2/4 31/2/4
f 34/2/4 32/2/4 33/2/4
f 37/2/4 36/2/4 35/2/4
f 38/2/4 36/2/4 37/2/4
f 41/2/4 40/2/4 39/2/4
f 42/2/4 40/2/4 41/2/4
f 43/1/5 44/1/5 45/1/5
f 45/1/5 44/1/5 46/1/5
f 45/2/5 46/2/5 47/2/5
f 47/2/5 46/2/5 48/2/5
f 51/2/6 50/2/6 49/2/6
f 52/2/6 50/2/6 51/2/6
f 55/1/6 54/1/6 53/1/6
f 56/1/6 54/1/6 55/1/6
f 59/2/6 58/2/6 57/2/6
f 60/2/6 58/2/6 59/2/6
f 63/2/6 62/2/6 61/2/6
f 64/2/6 62/2/6 63/2/6
