# MagicaVoxel @ Ephtracy

# group
o 

# material
mtllib man_03-0.mtl
usemtl palette

# normals
vn -1 0 0
vn 1 0 0
vn 0 0 1
vn 0 0 -1
vn 0 -1 0
vn 0 1 0

# texcoords
vt 0.294922 0.5
vt 0.369141 0.5
vt 0.373047 0.5
vt 0.916016 0.5

# verts
v 0.5 0.5 -0.3
v 0.5 0.5 -0.6
v 0.5 0.6 -0.2
v 0.5 0.6 -0.3
v 0.5 0.7 -0.2
v 0.5 0.7 -0.3
v 0.5 0.7 -0.6
v 0.5 0.8 -0.3
v 0.5 0.8 -0.6
v 0.5 1.5 -0.3
v 0.5 1.5 -0.6
v 0.5 1.8 -0.3
v 0.5 1.8 -0.6
v 0.6 0.6 -0.2
v 0.6 0.6 -0.3
v 0.6 0.7 -0.2
v 0.6 0.7 -0.3
v 0.7 0.5 -0.3
v 0.7 0.5 -0.6
v 0.7 0.7 -0.3
v 0.7 0.7 -0.4
v 0.7 0.7 -0.5
v 0.7 0.7 -0.6
v 0.7 0.8 -0.3
v 0.7 0.8 -0.4
v 0.7 0.8 -0.5
v 0.7 0.8 -0.6
v 0.7 1.5 -0.3
v 0.7 1.5 -0.6
v 0.7 1.8 -0.3
v 0.7 1.8 -0.6
v 0.5 0.6 -0.2
v 0.5 0.7 -0.2
v 0.6 0.6 -0.2
v 0.6 0.7 -0.2
v 0.5 0.5 -0.3
v 0.5 0.6 -0.3
v 0.5 0.7 -0.3
v 0.5 0.8 -0.3
v 0.5 1.5 -0.3
v 0.5 1.8 -0.3
v 0.6 0.6 -0.3
v 0.6 0.7 -0.3
v 0.7 0.5 -0.3
v 0.7 0.7 -0.3
v 0.7 0.8 -0.3
v 0.7 1.5 -0.3
v 0.7 1.8 -0.3
v 0.5 0.5 -0.6
v 0.5 0.7 -0.6
v 0.5 0.8 -0.6
v 0.5 1.5 -0.6
v 0.5 1.8 -0.6
v 0.7 0.5 -0.6
v 0.7 0.7 -0.6
v 0.7 0.8 -0.6
v 0.7 1.5 -0.6
v 0.7 1.8 -0.6
v 0.5 0.5 -0.3
v 0.7 0.5 -0.3
v 0.5 0.5 -0.6
v 0.7 0.5 -0.6
v 0.5 0.6 -0.2
v 0.6 0.6 -0.2
v 0.5 0.6 -0.3
v 0.6 0.6 -0.3
v 0.5 0.7 -0.2
v 0.6 0.7 -0.2
v 0.5 0.7 -0.3
v 0.6 0.7 -0.3
v 0.5 1.8 -0.3
v 0.7 1.8 -0.3
v 0.5 1.8 -0.6
v 0.7 1.8 -0.6

# faces
f 4/1/1 2/1/1 1/1/1
f 5/1/1 4/1/1 3/1/1
f 6/1/1 2/1/1 4/1/1
f 6/1/1 4/1/1 5/1/1
f 7/1/1 2/1/1 6/1/1
f 8/3/1 7/3/1 6/3/1
f 9/3/1 7/3/1 8/3/1
f 10/1/1 9/1/1 8/1/1
f 11/1/1 9/1/1 10/1/1
f 12/4/1 11/4/1 10/4/1
f 13/4/1 11/4/1 12/4/1
f 14/1/2 15/1/2 16/1/2
f 16/1/2 15/1/2 17/1/2
f 18/1/2 19/1/2 20/1/2
f 20/1/2 19/1/2 21/1/2
f 21/1/2 19/1/2 22/1/2
f 22/1/2 19/1/2 23/1/2
f 20/3/2 21/3/2 24/3/2
f 21/2/2 22/2/2 25/2/2
f 24/3/2 21/3/2 25/3/2
f 22/3/2 23/3/2 26/3/2
f 25/2/2 22/2/2 26/2/2
f 26/3/2 23/3/2 27/3/2
f 24/1/2 25/1/2 28/1/2
f 25/1/2 26/1/2 28/1/2
f 26/1/2 27/1/2 28/1/2
f 28/1/2 27/1/2 29/1/2
f 28/4/2 29/4/2 30/4/2
f 30/4/2 29/4/2 31/4/2
f 34/1/3 33/1/3 32/1/3
f 35/1/3 33/1/3 34/1/3
f 42/1/3 37/1/3 36/1/3
f 43/3/3 39/3/3 38/3/3
f 44/1/3 42/1/3 36/1/3
f 44/1/3 43/1/3 42/1/3
f 45/3/3 39/3/3 43/3/3
f 45/1/3 43/1/3 44/1/3
f 46/1/3 40/1/3 39/1/3
f 46/3/3 39/3/3 45/3/3
f 47/4/3 41/4/3 40/4/3
f 47/1/3 40/1/3 46/1/3
f 48/4/3 41/4/3 47/4/3
f 49/1/4 50/1/4 54/1/4
f 50/3/4 51/3/4 55/3/4
f 54/1/4 50/1/4 55/1/4
f 51/1/4 52/1/4 56/1/4
f 55/3/4 51/3/4 56/3/4
f 52/4/4 53/4/4 57/4/4
f 56/1/4 52/1/4 57/1/4
f 57/4/4 53/4/4 58/4/4
f 61/1/5 60/1/5 59/1/5
f 62/1/5 60/1/5 61/1/5
f 65/1/5 64/1/5 63/1/5
f 66/1/5 64/1/5 65/1/5
f 67/1/6 68/1/6 69/1/6
f 69/1/6 68/1/6 70/1/6
f 71/4/6 72/4/6 73/4/6
f 73/4/6 72/4/6 74/4/6
